P2
4 3
255
0 5 10 15
80 85 90 95
160 165 170 175
